<?xml version="1.0" encoding="UTF-8"?>
<svg version="1.1" xmlns="http://www.w3.org/2000/svg" width="341" height="341">
<path d="M0 0 C7.04017804 2.58139862 13.3435667 7.01555827 19.64916992 11.0090332 C24.29884292 13.95302305 28.99342743 16.79497598 33.75 19.5625 C40.70584109 23.61605097 47.59114704 27.780185 54.46374512 31.97286987 C64.75221244 38.24891931 75.088394 44.43036388 85.5 50.5 C95.53278192 56.35048175 105.51056232 62.28402716 115.4375 68.3125 C116.03272461 68.6734375 116.62794922 69.034375 117.24121094 69.40625 C124.43638913 73.77231463 124.43638913 73.77231463 128 76 C129.00426025 76.6086792 130.00852051 77.2173584 131.04321289 77.84448242 C137.25451382 82.37256234 137.25451382 82.37256234 139 86 C139.75871647 91.02231147 139.67370147 96.02527858 139.63110352 101.08984375 C139.63624491 102.63763244 139.64352786 104.18541528 139.65278625 105.73318481 C139.67128074 109.92753459 139.65837437 114.12124766 139.63869596 118.31557083 C139.62229184 122.70900443 139.6311248 127.10239826 139.63621521 131.49584961 C139.64073421 138.8733129 139.62487844 146.2505225 139.59692383 153.62792969 C139.56487273 162.15204388 139.56488825 170.67570054 139.5821386 179.19984722 C139.59801333 187.40649325 139.59126405 195.61297187 139.57420158 203.8196106 C139.56733667 207.30913765 139.56835777 210.79853028 139.57574654 214.28805542 C139.58341897 218.39880164 139.57125243 222.50902843 139.54389763 226.61968613 C139.53702269 228.12650893 139.53690631 229.63338032 139.54411316 231.14020157 C139.55283193 233.20089567 139.53681477 235.25999552 139.5146637 237.32055664 C139.51185678 238.4723793 139.50904985 239.62420197 139.50615788 240.81092834 C138.73321359 245.68090042 136.45043378 248.86003489 132.609375 251.87890625 C131.66578125 252.43449219 130.7221875 252.99007812 129.75 253.5625 C129.20335693 253.88710205 128.65671387 254.2117041 128.09350586 254.54614258 C121.31276418 258.51083853 114.3466641 262.15893363 107.42504883 265.86938477 C99.56900445 270.09807188 91.87421154 274.54993281 84.21655273 279.12597656 C76.78786834 283.55859111 69.27556409 287.82663634 61.73266602 292.0612793 C55.8931073 295.34649124 50.09098285 298.68729374 44.31542969 302.08374023 C34.69943686 307.73724781 25.04456394 313.32421644 15.31622314 318.78231812 C14.03273912 319.5047697 12.75171591 320.23161244 11.47332764 320.96304321 C9.68422814 321.98523859 7.88659126 322.99052134 6.0859375 323.9921875 C5.0551709 324.57339355 4.0244043 325.15459961 2.96240234 325.75341797 C-1.0017554 327.42153973 -4.08477508 327.70090931 -8.15209961 326.21240234 C-8.81218018 325.84066895 -9.47226074 325.46893555 -10.15234375 325.0859375 C-10.91651611 324.66207764 -11.68068848 324.23821777 -12.46801758 323.80151367 C-13.69041138 323.0953894 -13.69041138 323.0953894 -14.9375 322.375 C-16.24207153 321.63890503 -16.24207153 321.63890503 -17.57299805 320.88793945 C-27.1981247 315.40949493 -36.63620923 309.61710256 -46.06347656 303.80712891 C-50.92818669 300.81339891 -55.80777065 297.84416484 -60.6875 294.875 C-61.65026855 294.28895996 -62.61303711 293.70291992 -63.60498047 293.09912109 C-75.64946432 285.77275793 -87.73541146 278.51802785 -99.87109375 271.34375 C-101.28656196 270.5061411 -102.70200773 269.66849429 -104.11743164 268.83081055 C-106.8791458 267.19639731 -109.64291502 265.5655396 -112.40795898 263.93676758 C-115.64823231 262.0243286 -118.87773523 260.09489106 -122.09802246 258.14898682 C-123.37326514 257.37861125 -124.6503931 256.61134846 -125.92932129 255.84710693 C-127.80851203 254.7185266 -129.67486572 253.57111044 -131.5390625 252.41796875 C-132.61623535 251.75949951 -133.6934082 251.10103027 -134.80322266 250.42260742 C-139.90485854 246.74257435 -144.34741693 243.2108692 -145.65318871 236.78615093 C-145.91172551 232.7773158 -145.94753061 228.82109454 -145.90576172 224.80664062 C-145.91525883 223.27164177 -145.9277291 221.73665888 -145.94293213 220.20170593 C-145.97473055 216.05054739 -145.96252047 211.90061229 -145.94027853 207.74943352 C-145.9224968 203.39562677 -145.9390084 199.04192143 -145.94998169 194.68811035 C-145.9626999 187.37798344 -145.94597897 180.06835233 -145.91259766 172.75830078 C-145.87450408 164.31912772 -145.88684519 155.88113858 -145.92538249 147.44199419 C-145.95719756 140.18306647 -145.96160724 132.92449418 -145.94331181 125.66551924 C-145.93242517 121.33584163 -145.9308691 117.00671966 -145.95406723 112.67707825 C-145.97436152 108.60533838 -145.9601346 104.53511758 -145.91980743 100.46354103 C-145.91058967 98.97369211 -145.91314531 97.48371426 -145.92864609 95.99391747 C-146.04787447 83.36588135 -146.04787447 83.36588135 -141.59742737 78.1675415 C-139.0321598 75.72473261 -136.39898804 73.60007372 -133.28515625 71.890625 C-132.00535889 71.17422852 -132.00535889 71.17422852 -130.69970703 70.44335938 C-129.80880371 69.96705078 -128.91790039 69.49074219 -128 69 C-127.08460449 68.49791016 -126.16920898 67.99582031 -125.22607422 67.47851562 C-122.30511289 65.8858998 -119.37250929 64.31655765 -116.4375 62.75 C-108.79649089 58.6404862 -101.22955737 54.45312904 -93.77709961 50.01171875 C-87.06169917 46.01488949 -80.2857024 42.12581569 -73.5 38.25 C-72.60078827 37.73611725 -72.60078827 37.73611725 -71.68341064 37.21185303 C-63.19178032 32.36156581 -54.66840909 27.57111725 -46.125 22.8125 C-36.13098056 17.24356255 -26.25163071 11.49806943 -16.421875 5.64453125 C-15.64239502 5.18062988 -14.86291504 4.71672852 -14.05981445 4.23876953 C-12.39098472 3.23513767 -10.73785035 2.20543867 -9.08984375 1.16796875 C-5.81749632 -0.66087589 -3.70909596 -0.48643881 0 0 Z " fill="#0A1A2F" transform="translate(172,4)"/>
<path d="M0 0 C7.04017804 2.58139862 13.3435667 7.01555827 19.64916992 11.0090332 C24.29884292 13.95302305 28.99342743 16.79497598 33.75 19.5625 C40.70584109 23.61605097 47.59114704 27.780185 54.46374512 31.97286987 C64.75221244 38.24891931 75.088394 44.43036388 85.5 50.5 C95.53278192 56.35048175 105.51056232 62.28402716 115.4375 68.3125 C116.03272461 68.6734375 116.62794922 69.034375 117.24121094 69.40625 C124.43638913 73.77231463 124.43638913 73.77231463 128 76 C129.00426025 76.6086792 130.00852051 77.2173584 131.04321289 77.84448242 C137.25451382 82.37256234 137.25451382 82.37256234 139 86 C139.75871647 91.02231147 139.67370147 96.02527858 139.63110352 101.08984375 C139.63624491 102.63763244 139.64352786 104.18541528 139.65278625 105.73318481 C139.67128074 109.92753459 139.65837437 114.12124766 139.63869596 118.31557083 C139.62229184 122.70900443 139.6311248 127.10239826 139.63621521 131.49584961 C139.64073421 138.8733129 139.62487844 146.2505225 139.59692383 153.62792969 C139.56487273 162.15204388 139.56488825 170.67570054 139.5821386 179.19984722 C139.59801333 187.40649325 139.59126405 195.61297187 139.57420158 203.8196106 C139.56733667 207.30913765 139.56835777 210.79853028 139.57574654 214.28805542 C139.58341897 218.39880164 139.57125243 222.50902843 139.54389763 226.61968613 C139.53702269 228.12650893 139.53690631 229.63338032 139.54411316 231.14020157 C139.55283193 233.20089567 139.53681477 235.25999552 139.5146637 237.32055664 C139.51185678 238.4723793 139.50904985 239.62420197 139.50615788 240.81092834 C138.73321359 245.68090042 136.45043378 248.86003489 132.609375 251.87890625 C131.66578125 252.43449219 130.7221875 252.99007812 129.75 253.5625 C129.20335693 253.88710205 128.65671387 254.2117041 128.09350586 254.54614258 C121.31276418 258.51083853 114.3466641 262.15893363 107.42504883 265.86938477 C99.56900445 270.09807188 91.87421154 274.54993281 84.21655273 279.12597656 C76.78786834 283.55859111 69.27556409 287.82663634 61.73266602 292.0612793 C55.8931073 295.34649124 50.09098285 298.68729374 44.31542969 302.08374023 C34.69943686 307.73724781 25.04456394 313.32421644 15.31622314 318.78231812 C14.03273912 319.5047697 12.75171591 320.23161244 11.47332764 320.96304321 C9.68422814 321.98523859 7.88659126 322.99052134 6.0859375 323.9921875 C5.0551709 324.57339355 4.0244043 325.15459961 2.96240234 325.75341797 C-1.0017554 327.42153973 -4.08477508 327.70090931 -8.15209961 326.21240234 C-8.81218018 325.84066895 -9.47226074 325.46893555 -10.15234375 325.0859375 C-10.91651611 324.66207764 -11.68068848 324.23821777 -12.46801758 323.80151367 C-13.69041138 323.0953894 -13.69041138 323.0953894 -14.9375 322.375 C-16.24207153 321.63890503 -16.24207153 321.63890503 -17.57299805 320.88793945 C-27.1981247 315.40949493 -36.63620923 309.61710256 -46.06347656 303.80712891 C-50.92818669 300.81339891 -55.80777065 297.84416484 -60.6875 294.875 C-61.65026855 294.28895996 -62.61303711 293.70291992 -63.60498047 293.09912109 C-75.64946432 285.77275793 -87.73541146 278.51802785 -99.87109375 271.34375 C-101.28656196 270.5061411 -102.70200773 269.66849429 -104.11743164 268.83081055 C-106.8791458 267.19639731 -109.64291502 265.5655396 -112.40795898 263.93676758 C-115.64823231 262.0243286 -118.87773523 260.09489106 -122.09802246 258.14898682 C-123.37326514 257.37861125 -124.6503931 256.61134846 -125.92932129 255.84710693 C-127.80851203 254.7185266 -129.67486572 253.57111044 -131.5390625 252.41796875 C-132.61623535 251.75949951 -133.6934082 251.10103027 -134.80322266 250.42260742 C-139.90485854 246.74257435 -144.34741693 243.2108692 -145.65318871 236.78615093 C-145.91172551 232.7773158 -145.94753061 228.82109454 -145.90576172 224.80664062 C-145.91525883 223.27164177 -145.9277291 221.73665888 -145.94293213 220.20170593 C-145.97473055 216.05054739 -145.96252047 211.90061229 -145.94027853 207.74943352 C-145.9224968 203.39562677 -145.9390084 199.04192143 -145.94998169 194.68811035 C-145.9626999 187.37798344 -145.94597897 180.06835233 -145.91259766 172.75830078 C-145.87450408 164.31912772 -145.88684519 155.88113858 -145.92538249 147.44199419 C-145.95719756 140.18306647 -145.96160724 132.92449418 -145.94331181 125.66551924 C-145.93242517 121.33584163 -145.9308691 117.00671966 -145.95406723 112.67707825 C-145.97436152 108.60533838 -145.9601346 104.53511758 -145.91980743 100.46354103 C-145.91058967 98.97369211 -145.91314531 97.48371426 -145.92864609 95.99391747 C-146.04787447 83.36588135 -146.04787447 83.36588135 -141.59742737 78.1675415 C-139.0321598 75.72473261 -136.39898804 73.60007372 -133.28515625 71.890625 C-132.00535889 71.17422852 -132.00535889 71.17422852 -130.69970703 70.44335938 C-129.80880371 69.96705078 -128.91790039 69.49074219 -128 69 C-127.08460449 68.49791016 -126.16920898 67.99582031 -125.22607422 67.47851562 C-122.30511289 65.8858998 -119.37250929 64.31655765 -116.4375 62.75 C-108.79649089 58.6404862 -101.22955737 54.45312904 -93.77709961 50.01171875 C-87.06169917 46.01488949 -80.2857024 42.12581569 -73.5 38.25 C-72.60078827 37.73611725 -72.60078827 37.73611725 -71.68341064 37.21185303 C-63.19178032 32.36156581 -54.66840909 27.57111725 -46.125 22.8125 C-36.13098056 17.24356255 -26.25163071 11.49806943 -16.421875 5.64453125 C-15.64239502 5.18062988 -14.86291504 4.71672852 -14.05981445 4.23876953 C-12.39098472 3.23513767 -10.73785035 2.20543867 -9.08984375 1.16796875 C-5.81749632 -0.66087589 -3.70909596 -0.48643881 0 0 Z M-18.5625 28.1875 C-20.22079834 29.13991577 -20.22079834 29.13991577 -21.91259766 30.11157227 C-29.83008098 34.67542858 -37.68843262 39.34268952 -45.53613281 44.02539062 C-53.45832927 48.7337316 -61.50503945 53.2075293 -69.57312012 57.65887451 C-76.96232407 61.73675432 -84.29731846 65.87688998 -91.54077148 70.20800781 C-99.16220635 74.74186176 -106.93798992 79.00483475 -114.71337891 83.26782227 C-115.74382324 83.83815186 -116.77426758 84.40848145 -117.8359375 84.99609375 C-118.75938965 85.50325928 -119.6828418 86.0104248 -120.63427734 86.53295898 C-122.92412047 87.9529453 -124.3776145 88.86628081 -126 91 C-126.47595842 94.00043123 -126.47595842 94.00043123 -126.43237305 97.48852539 C-126.44255054 98.14794789 -126.45272802 98.8073704 -126.46321392 99.4867754 C-126.49355066 101.69048598 -126.50263994 103.8937633 -126.51171875 106.09765625 C-126.52884739 107.66262181 -126.5472357 109.22757402 -126.56680298 110.79251099 C-126.61548546 115.0080524 -126.6453232 119.22352669 -126.67056656 123.4392662 C-126.69311171 126.93183492 -126.72467492 130.42429792 -126.75625515 133.91679478 C-126.82809468 141.87383065 -126.88559394 149.8308672 -126.93261719 157.78808594 C-126.9752935 164.97400948 -127.03990856 172.1593347 -127.12420559 179.34488392 C-127.19457825 185.38812323 -127.24435577 191.43129272 -127.28408813 197.474823 C-127.30289966 199.9329898 -127.32801857 202.39111713 -127.35971069 204.84915161 C-127.40120378 208.24729232 -127.41688123 211.64460779 -127.42578125 215.04296875 C-127.44323395 216.01565704 -127.46068665 216.98834534 -127.47866821 217.99050903 C-127.45694348 224.91429426 -126.41737671 232.44273934 -121.41645813 237.64836121 C-117.63935514 240.65404846 -113.2089824 242.18077495 -108.73071289 243.85717773 C-106.07841042 244.9671847 -103.76432036 246.24161669 -101.3203125 247.75 C-97.87879645 249.85263535 -94.42969775 251.93504791 -90.94921875 253.97265625 C-80.8956112 259.87418283 -70.92251119 265.87844766 -61.03564453 272.05517578 C-54.45201183 276.14836606 -47.77672162 280.06301791 -41.0625 283.9375 C-10.27988293 301.72011707 -10.27988293 301.72011707 -6 306 C-0.88111114 305.61563183 2.66610681 304.40991142 7.0703125 301.82421875 C8.76921631 300.83893188 8.76921631 300.83893188 10.50244141 299.83374023 C11.71004772 299.11847333 12.91756519 298.40305638 14.125 297.6875 C15.38523003 296.95204866 16.64614367 296.21776755 17.90771484 295.48461914 C20.43626849 294.01368693 22.96160485 292.53746884 25.484375 291.05664062 C30.17371367 288.30769614 34.89887167 285.62253601 39.625 282.9375 C56.96399242 273.03794673 74.24297709 263.03630207 91.47216797 252.94702148 C98.50511094 248.84102563 105.59053676 244.84024381 112.734375 240.93041992 C116.07118266 239.2534518 116.07118266 239.2534518 119 237 C119.13362737 235.16327266 119.19747729 233.32144649 119.23464966 231.48023987 C119.27356323 229.68239799 119.27356323 229.68239799 119.31326294 227.84823608 C119.33684007 226.50763344 119.36017789 225.16702657 119.38330078 223.82641602 C119.41083127 222.42378858 119.43856637 221.02116516 119.4664917 219.61854553 C119.71224006 206.7836156 119.85160564 193.94690783 119.96293831 181.11018467 C120.03949599 172.47957867 120.14800708 163.85183429 120.33740234 155.22290039 C120.50260363 147.69551737 120.60751466 140.17012922 120.64017475 132.64096016 C120.6594244 128.65661642 120.70776747 124.6776314 120.82797623 120.6949482 C122.00881662 104.98872992 122.00881662 104.98872992 117.36581421 90.72662926 C113.43973963 87.20787188 109.13168329 85.33889903 104.15242958 83.75659847 C100.71226431 82.54734925 97.82945416 80.68001288 94.734375 78.76171875 C93.57938193 78.08361877 92.42256051 77.40861428 91.26318359 76.73803711 C80.71658332 70.5847725 70.23672982 64.3533916 59.8828125 57.87915039 C51.77806412 52.82540828 43.56704951 47.95542093 35.33251953 43.11694336 C29.50363401 39.68830933 23.71097803 36.21958323 17.96875 32.6484375 C16.82869169 31.94475887 15.68839583 31.24146492 14.54785156 30.53857422 C12.40131837 29.21168999 10.26217621 27.87274891 8.13183594 26.52001953 C-2.76802683 19.81618596 -7.9570839 21.9430297 -18.5625 28.1875 Z " fill="#5FF5D3" transform="translate(172,4)"/>
<path d="M0 0 C6.6 0 13.2 0 20 0 C22.68915769 6.0506048 24.54002473 10.3249172 25.89453125 16.5078125 C26.20966098 17.90886672 26.52484875 19.30990789 26.84008789 20.7109375 C26.99849152 21.43120117 27.15689514 22.15146484 27.32009888 22.89355469 C29.91184511 34.63873502 32.76949962 46.21101715 36.4140625 57.6796875 C39.11720355 66.21070146 41.42869218 74.83109929 43.69165039 83.48828125 C43.96485107 84.52597656 44.23805176 85.56367188 44.51953125 86.6328125 C44.75776611 87.54949707 44.99600098 88.46618164 45.24145508 89.41064453 C45.94364091 92.01958875 45.94364091 92.01958875 47.0925293 94.46044922 C48 97 48 97 48 103 C42.06 103 36.12 103 30 103 C29.030625 100.36 28.06125 97.72 27.0625 95 C26.75836182 94.1853125 26.45422363 93.370625 26.14086914 92.53125 C25.89973389 91.8609375 25.65859863 91.190625 25.41015625 90.5 C25.16402588 89.8296875 24.91789551 89.159375 24.66430664 88.46875 C23.74617456 85.05671339 23.43826512 81.50612094 23 78 C10.13 77.505 10.13 77.505 -3 77 C-3.99 81.95 -3.99 81.95 -5 87 C-5.83577475 89.90241778 -6.68961093 92.75800458 -7.625 95.625 C-8.800625 99.275625 -8.800625 99.275625 -10 103 C-15.94 103 -21.88 103 -28 103 C-27.47975256 94.90948535 -26.07827548 87.60161133 -23.875 79.8125 C-23.5644165 78.68755127 -23.25383301 77.56260254 -22.93383789 76.40356445 C-20.27523283 66.82950497 -17.50104768 57.28849506 -14.69140625 47.7578125 C-13.05410219 42.20163847 -11.4594488 36.63394039 -9.875 31.0625 C-8.91787998 27.707986 -7.95921208 24.35391631 -7 21 C-6.76506836 20.17725586 -6.53013672 19.35451172 -6.28808594 18.50683594 C-5.61298248 16.14913805 -4.93236266 13.79310574 -4.25 11.4375 C-4.05132324 10.74084229 -3.85264648 10.04418457 -3.64794922 9.32641602 C-2.67256327 5.97942971 -1.5711724 3.14234481 0 0 Z " fill="#5FF6D2" transform="translate(156,118)"/>
<path d="M0 0 C7.04017804 2.58139862 13.3435667 7.01555827 19.64916992 11.0090332 C24.29884292 13.95302305 28.99342743 16.79497598 33.75 19.5625 C40.70584109 23.61605097 47.59114704 27.780185 54.46374512 31.97286987 C64.75221244 38.24891931 75.088394 44.43036388 85.5 50.5 C95.53278192 56.35048175 105.51056232 62.28402716 115.4375 68.3125 C116.03272461 68.6734375 116.62794922 69.034375 117.24121094 69.40625 C124.43638913 73.77231463 124.43638913 73.77231463 128 76 C129.00426025 76.6086792 130.00852051 77.2173584 131.04321289 77.84448242 C137.25451382 82.37256234 137.25451382 82.37256234 139 86 C139.75871647 91.02231147 139.67370147 96.02527858 139.63110352 101.08984375 C139.63624491 102.63763244 139.64352786 104.18541528 139.65278625 105.73318481 C139.67128074 109.92753459 139.65837437 114.12124766 139.63869596 118.31557083 C139.62229184 122.70900443 139.6311248 127.10239826 139.63621521 131.49584961 C139.64073421 138.8733129 139.62487844 146.2505225 139.59692383 153.62792969 C139.56487273 162.15204388 139.56488825 170.67570054 139.5821386 179.19984722 C139.59801333 187.40649325 139.59126405 195.61297187 139.57420158 203.8196106 C139.56733667 207.30913765 139.56835777 210.79853028 139.57574654 214.28805542 C139.58341897 218.39880164 139.57125243 222.50902843 139.54389763 226.61968613 C139.53702269 228.12650893 139.53690631 229.63338032 139.54411316 231.14020157 C139.55283193 233.20089567 139.53681477 235.25999552 139.5146637 237.32055664 C139.51185678 238.4723793 139.50904985 239.62420197 139.50615788 240.81092834 C138.73321359 245.68090042 136.45043378 248.86003489 132.609375 251.87890625 C131.66578125 252.43449219 130.7221875 252.99007812 129.75 253.5625 C129.20335693 253.88710205 128.65671387 254.2117041 128.09350586 254.54614258 C121.31276418 258.51083853 114.3466641 262.15893363 107.42504883 265.86938477 C99.56900445 270.09807188 91.87421154 274.54993281 84.21655273 279.12597656 C76.78786834 283.55859111 69.27556409 287.82663634 61.73266602 292.0612793 C55.8931073 295.34649124 50.09098285 298.68729374 44.31542969 302.08374023 C34.69943686 307.73724781 25.04456394 313.32421644 15.31622314 318.78231812 C14.03273912 319.5047697 12.75171591 320.23161244 11.47332764 320.96304321 C9.68422814 321.98523859 7.88659126 322.99052134 6.0859375 323.9921875 C5.0551709 324.57339355 4.0244043 325.15459961 2.96240234 325.75341797 C-1.0017554 327.42153973 -4.08477508 327.70090931 -8.15209961 326.21240234 C-8.81218018 325.84066895 -9.47226074 325.46893555 -10.15234375 325.0859375 C-10.91651611 324.66207764 -11.68068848 324.23821777 -12.46801758 323.80151367 C-13.69041138 323.0953894 -13.69041138 323.0953894 -14.9375 322.375 C-16.24207153 321.63890503 -16.24207153 321.63890503 -17.57299805 320.88793945 C-27.1981247 315.40949493 -36.63620923 309.61710256 -46.06347656 303.80712891 C-50.92818669 300.81339891 -55.80777065 297.84416484 -60.6875 294.875 C-61.65026855 294.28895996 -62.61303711 293.70291992 -63.60498047 293.09912109 C-75.64946432 285.77275793 -87.73541146 278.51802785 -99.87109375 271.34375 C-101.28656196 270.5061411 -102.70200773 269.66849429 -104.11743164 268.83081055 C-106.8791458 267.19639731 -109.64291502 265.5655396 -112.40795898 263.93676758 C-115.64823231 262.0243286 -118.87773523 260.09489106 -122.09802246 258.14898682 C-123.37326514 257.37861125 -124.6503931 256.61134846 -125.92932129 255.84710693 C-127.80851203 254.7185266 -129.67486572 253.57111044 -131.5390625 252.41796875 C-132.61623535 251.75949951 -133.6934082 251.10103027 -134.80322266 250.42260742 C-139.90485854 246.74257435 -144.34741693 243.2108692 -145.65318871 236.78615093 C-145.91172551 232.7773158 -145.94753061 228.82109454 -145.90576172 224.80664062 C-145.91525883 223.27164177 -145.9277291 221.73665888 -145.94293213 220.20170593 C-145.97473055 216.05054739 -145.96252047 211.90061229 -145.94027853 207.74943352 C-145.9224968 203.39562677 -145.9390084 199.04192143 -145.94998169 194.68811035 C-145.9626999 187.37798344 -145.94597897 180.06835233 -145.91259766 172.75830078 C-145.87450408 164.31912772 -145.88684519 155.88113858 -145.92538249 147.44199419 C-145.95719756 140.18306647 -145.96160724 132.92449418 -145.94331181 125.66551924 C-145.93242517 121.33584163 -145.9308691 117.00671966 -145.95406723 112.67707825 C-145.97436152 108.60533838 -145.9601346 104.53511758 -145.91980743 100.46354103 C-145.91058967 98.97369211 -145.91314531 97.48371426 -145.92864609 95.99391747 C-146.04787447 83.36588135 -146.04787447 83.36588135 -141.59742737 78.1675415 C-139.0321598 75.72473261 -136.39898804 73.60007372 -133.28515625 71.890625 C-132.00535889 71.17422852 -132.00535889 71.17422852 -130.69970703 70.44335938 C-129.80880371 69.96705078 -128.91790039 69.49074219 -128 69 C-127.08460449 68.49791016 -126.16920898 67.99582031 -125.22607422 67.47851562 C-122.30511289 65.8858998 -119.37250929 64.31655765 -116.4375 62.75 C-108.79649089 58.6404862 -101.22955737 54.45312904 -93.77709961 50.01171875 C-87.06169917 46.01488949 -80.2857024 42.12581569 -73.5 38.25 C-72.60078827 37.73611725 -72.60078827 37.73611725 -71.68341064 37.21185303 C-63.19178032 32.36156581 -54.66840909 27.57111725 -46.125 22.8125 C-36.13098056 17.24356255 -26.25163071 11.49806943 -16.421875 5.64453125 C-15.64239502 5.18062988 -14.86291504 4.71672852 -14.05981445 4.23876953 C-12.39098472 3.23513767 -10.73785035 2.20543867 -9.08984375 1.16796875 C-5.81749632 -0.66087589 -3.70909596 -0.48643881 0 0 Z M-15.625 7 C-17.40826736 8.1072147 -19.19354187 9.21120113 -20.98046875 10.3125 C-22.42558838 11.20582031 -22.42558838 11.20582031 -23.89990234 12.1171875 C-29.51287543 15.52616911 -35.22780639 18.75683529 -40.9375 22 C-42.14900331 22.68980527 -43.36042909 23.37974671 -44.57177734 24.06982422 C-46.94225493 25.41970623 -49.31334294 26.76850539 -51.68505859 28.11621094 C-56.375683 30.78176241 -61.0639352 33.45144154 -65.75 36.125 C-66.58354004 36.6001001 -67.41708008 37.0752002 -68.27587891 37.56469727 C-72.79557686 40.14694614 -77.29825945 42.75566159 -81.78515625 45.39453125 C-91.97981822 51.38943754 -102.21013753 57.26926434 -112.625 62.875 C-113.6260376 63.41439209 -114.6270752 63.95378418 -115.65844727 64.50952148 C-117.56743106 65.53748482 -119.47652416 66.56524521 -121.38574219 67.59277344 C-122.6797998 68.28935059 -122.6797998 68.28935059 -124 69 C-124.7724707 69.41540039 -125.54494141 69.83080078 -126.34082031 70.25878906 C-128.31709041 71.32780028 -130.28484441 72.41073017 -132.25 73.5 C-133.80460937 74.35078125 -133.80460937 74.35078125 -135.390625 75.21875 C-138.35305493 77.24100756 -140.00772588 79.01320387 -142 82 C-142.6054441 85.15581772 -142.6054441 85.15581772 -142.52812195 88.63511658 C-142.53647861 89.28852368 -142.54483527 89.94193079 -142.55344516 90.61513811 C-142.57636141 92.79703995 -142.57081658 94.9779112 -142.56518555 97.15991211 C-142.57552073 98.72726061 -142.58751024 100.29459894 -142.60102844 101.86192322 C-142.63206647 106.11404026 -142.63735293 110.36581835 -142.63609672 114.61803508 C-142.63692738 118.16928651 -142.64917141 121.72046446 -142.66104633 125.27169329 C-142.68841786 133.65016989 -142.69374947 142.02847056 -142.6862793 150.40698242 C-142.67903596 159.04771249 -142.71246588 167.68762711 -142.76533669 176.32818025 C-142.80910965 183.75001493 -142.82583416 191.17158606 -142.8213008 198.59354788 C-142.81897832 203.02499249 -142.82730376 207.45577804 -142.86237144 211.88709831 C-142.89432049 216.05470655 -142.89252504 220.22096372 -142.86492729 224.38858986 C-142.86047104 225.91640405 -142.86792491 227.44430728 -142.88827133 228.97199249 C-143.24557554 236.96494766 -143.24557554 236.96494766 -140.4993 244.20064259 C-138.72925877 245.75854915 -137.07338485 246.88960672 -135 248 C-133.92041016 248.67587158 -132.84082031 249.35174316 -131.72851562 250.0480957 C-130.63216797 250.64710693 -129.53582031 251.24611816 -128.40625 251.86328125 C-127.1736176 252.54744092 -125.94186842 253.23319391 -124.7109375 253.92041016 C-124.09250977 254.26428772 -123.47408203 254.60816528 -122.83691406 254.96246338 C-118.23305469 257.56284235 -113.74547435 260.36463057 -109.23641968 263.12484741 C-100.0959488 268.71862475 -90.92694582 274.25833486 -81.6875 279.6875 C-71.45209523 285.70673758 -61.30916794 291.87119556 -51.17626953 298.06103516 C-45.83455717 301.32190215 -40.48846659 304.57554749 -35.14044189 307.8260498 C-33.3735214 308.90039693 -31.60739883 309.97604659 -29.84130859 311.05175781 C-24.37831064 314.37235683 -18.90393849 317.67337863 -13.40234375 320.9296875 C-11.97716431 321.77442627 -11.97716431 321.77442627 -10.52319336 322.63623047 C-7.18995408 324.43782453 -4.8033679 325.21942507 -1 325 C5.26967762 322.09202452 11.24671603 318.66732662 17.25 315.25 C18.23726074 314.68998291 19.22452148 314.12996582 20.24169922 313.55297852 C30.59797725 307.67293724 40.9371413 301.76273743 51.2734375 295.84765625 C55.38056451 293.49733166 59.48936481 291.15003483 63.6015625 288.80859375 C71.72351348 284.18170413 79.82406005 279.5238832 87.88525391 274.79174805 C88.89249512 274.20047119 89.89973633 273.60919434 90.9375 273 C91.93442871 272.41452393 92.93135742 271.82904785 93.95849609 271.22583008 C101.71660845 266.6932475 109.56915921 262.35674946 117.51928711 258.16992188 C129.19945299 252.55849471 129.19945299 252.55849471 137 243 C137.30931538 239.98279576 137.30931538 239.98279576 137.27415466 236.59230042 C137.28911736 234.61335785 137.28911736 234.61335785 137.30438232 232.59443665 C137.30527809 231.13400281 137.30594168 229.67356881 137.30639648 228.21313477 C137.3140186 226.6738749 137.32244619 225.13461884 137.33161926 223.59536743 C137.35356333 219.41564246 137.36236278 215.23599064 137.36744571 211.05621457 C137.37108873 208.44500374 137.37732844 205.83381209 137.3844471 203.22260857 C137.40893918 194.11348503 137.42199342 185.00441845 137.42553711 175.89526367 C137.42917444 167.40296597 137.45908438 158.91102923 137.50094169 150.4188419 C137.53561921 143.12786034 137.55108509 135.83699858 137.55178314 128.54593509 C137.55257669 124.19118876 137.56135099 119.83681028 137.58978081 115.48214912 C137.61591897 111.38702032 137.61819096 107.29256552 137.60212517 103.19739151 C137.60030738 101.69495743 137.6070313 100.19248496 137.62294388 98.69013405 C137.64335861 96.63751735 137.63288515 94.58726943 137.61473083 92.53468323 C137.61674216 91.38671548 137.61875349 90.23874773 137.62082577 89.05599308 C136.60320525 84.04679176 133.25646088 81.86097319 129.1953125 79.078125 C128.18210937 78.47484375 127.16890625 77.8715625 126.125 77.25 C122.02005065 74.80394556 117.91850724 72.35250758 113.82290649 69.89083862 C106.10524172 65.25262909 98.36749792 60.64900613 90.62145996 56.05838013 C76.98691449 47.97665023 63.38056199 39.8494355 49.79736328 31.68164062 C44.6238421 28.57156785 39.44738961 25.46637165 34.26953125 22.36352539 C30.04006884 19.82817277 25.81568037 17.28481305 21.59765625 14.73046875 C20.70280518 14.18994873 19.8079541 13.64942871 18.88598633 13.0925293 C17.18771286 12.06651857 15.49082373 11.03821119 13.7956543 10.00708008 C-0.62300016 1.1930776 -0.62300016 1.1930776 -15.625 7 Z " fill="#102639" transform="translate(172,4)"/>
<path d="M0 0 C3.39977502 1.28518473 6.47691789 2.75750891 9.59765625 4.6171875 C10.90645752 5.39376709 10.90645752 5.39376709 12.24169922 6.18603516 C13.17256348 6.74339355 14.10342773 7.30075195 15.0625 7.875 C16.04492676 8.45942871 17.02735352 9.04385742 18.03955078 9.64599609 C24.961319 13.76787287 31.86890028 17.9136288 38.77172852 22.06713867 C43.96486664 25.18902807 49.16951254 28.29085162 54.3828125 31.37890625 C55.03733398 31.76664215 55.69185547 32.15437805 56.36621094 32.55386353 C57.36491211 33.14546768 57.36491211 33.14546768 58.38378906 33.74902344 C71.329617 41.41779718 84.23826303 49.14116427 97.07910156 56.98461914 C102.47496097 60.27503384 107.88418599 63.53269365 113.3515625 66.703125 C114.34978027 67.28336426 115.34799805 67.86360352 116.37646484 68.46142578 C118.21343549 69.52490225 120.05454176 70.58128736 121.90087891 71.62841797 C135.15100177 79.30200354 135.15100177 79.30200354 138 85 C138.10273167 87.06416922 138.1395276 89.13171536 138.14717102 91.19842529 C138.15084771 91.84110202 138.1545244 92.48377875 138.1583125 93.14593053 C138.16936537 95.30920907 138.17319588 97.47243961 138.17700195 99.63574219 C138.18326543 101.1829341 138.18991213 102.73012449 138.19691467 104.27731323 C138.21433594 108.48820193 138.22487967 112.69907926 138.2331202 116.90999508 C138.23826837 119.54029221 138.2443442 122.1705858 138.25063133 124.80088043 C138.26968724 133.0288364 138.28391708 141.25678338 138.2922433 149.48475718 C138.30201581 158.98542742 138.32833392 168.48586468 138.36874419 177.98645282 C138.39889828 185.32750483 138.41371153 192.66849004 138.41702431 200.00960279 C138.41937577 204.39510504 138.42834829 208.78035851 138.45348549 213.16579437 C138.47675874 217.29282181 138.4810026 221.41943656 138.47072411 225.5465126 C138.47022844 227.05981188 138.47655815 228.57313142 138.49028015 230.08636856 C138.50799427 232.15595251 138.50089749 234.22405458 138.48774719 236.29364014 C138.49013555 237.45065807 138.4925239 238.60767601 138.49498463 239.7997551 C137.88824542 243.72253156 136.48430251 245.93885414 134 249 C133.34 249 132.68 249 132 249 C132.309375 248.401875 132.61875 247.80375 132.9375 247.1875 C134.87588469 243.19670799 135.1325812 240.10662545 135.15390015 235.71255493 C135.16250061 234.39463455 135.17110107 233.07671417 135.17996216 231.71885681 C135.18439726 230.25479165 135.18869563 228.79072608 135.19287109 227.32666016 C135.2007731 225.78755 135.20904211 224.24844169 135.21765137 222.70933533 C135.24385425 217.65259568 135.2591746 212.59584781 135.2734375 207.5390625 C135.27879739 205.79853688 135.2841749 204.05801132 135.28956985 202.31748581 C135.31119365 195.07896199 135.32993158 187.8404404 135.34119225 180.60189247 C135.35744106 170.22515355 135.39064694 159.84878848 135.44759309 149.4721905 C135.48626587 142.17699538 135.50582161 134.88190038 135.51111281 127.58660543 C135.51476918 123.22847183 135.52682083 118.87073713 135.55921555 114.51271439 C135.58925059 110.41351964 135.59562468 106.31496614 135.58383179 102.21568489 C135.58361068 100.71162973 135.5919463 99.2075452 135.60948563 97.7035923 C135.63214447 95.64875886 135.62390224 93.59625748 135.60800171 91.54141235 C135.61131186 90.39214579 135.614622 89.24287922 135.61803246 88.05878639 C134.80454799 84.03266254 133.11275235 82.59446468 130 80 C127.60182096 78.45187972 125.23348169 77.01811468 122.75 75.625 C121.21406205 74.74224413 119.67895565 73.85804039 118.14453125 72.97265625 C117.31518066 72.49586426 116.48583008 72.01907227 115.63134766 71.52783203 C110.86695195 68.76149428 106.15586636 65.90638501 101.4375 63.0625 C92.3867124 57.61820731 83.31288848 52.21460373 74.22531128 46.83206177 C63.2376431 40.32370925 52.28122425 33.76899114 41.375 27.125 C32.85744796 21.93826233 24.32703748 16.77542486 15.75 11.6875 C14.87520996 11.16623535 14.00041992 10.6449707 13.09912109 10.10791016 C8.15645807 7.18728971 3.16594526 4.50560248 -2 2 C-1.34 1.34 -0.68 0.68 0 0 Z " fill="#0B1A30" transform="translate(173,5)"/>
<path d="M0 0 C0.33 0.66 0.66 1.32 1 2 C-0.13953125 2.06058594 -1.2790625 2.12117187 -2.453125 2.18359375 C-7.6951243 2.85320058 -11.37116282 5.23902216 -15.75 8.0625 C-17.51500354 9.16064975 -19.28205226 10.255517 -21.05078125 11.34765625 C-22.00162598 11.93691895 -22.9524707 12.52618164 -23.93212891 13.13330078 C-29.53207119 16.5406825 -35.23805078 19.76308664 -40.9375 23 C-42.14917214 23.68987599 -43.36076071 24.37989876 -44.57226562 25.07006836 C-46.94257697 26.41987518 -49.31349968 27.76859729 -51.68505859 29.11621094 C-56.375683 31.78176241 -61.0639352 34.45144154 -65.75 37.125 C-66.58354004 37.6001001 -67.41708008 38.0752002 -68.27587891 38.56469727 C-72.79557686 41.14694614 -77.29825945 43.75566159 -81.78515625 46.39453125 C-91.97980595 52.38943032 -102.20998591 58.26956081 -112.625 63.875 C-113.6253125 64.41366699 -114.625625 64.95233398 -115.65625 65.50732422 C-117.56457502 66.53441838 -119.47293906 67.56144004 -121.38134766 68.58837891 C-125.03695559 70.55898538 -128.68540139 72.53986371 -132.3125 74.5625 C-133.36050781 75.14128906 -134.40851563 75.72007813 -135.48828125 76.31640625 C-138.13312838 78.08923535 -139.37940506 79.27832034 -141 82 C-141.45831715 85.02722453 -141.45831715 85.02722453 -141.39872742 88.44134521 C-141.40537424 89.08588063 -141.41202107 89.73041605 -141.41886932 90.39448285 C-141.43750601 92.55188655 -141.43489373 94.70873598 -141.43237305 96.86621094 C-141.44138984 98.41358728 -141.45171686 99.96095646 -141.46325684 101.50831604 C-141.49086281 105.70837725 -141.50011621 109.90830307 -141.50611091 114.10844326 C-141.51548523 118.49807043 -141.54168784 122.88759609 -141.56611633 127.27716064 C-141.60981097 135.58913486 -141.63833971 143.90108941 -141.66143972 152.21314359 C-141.68847551 161.67623431 -141.73238801 171.13922307 -141.77772844 180.60224104 C-141.87061717 200.06810689 -141.94227853 219.53399971 -142 239 C-142.33 239 -142.66 239 -143 239 C-143.29422895 218.52065506 -143.5480377 198.04118868 -143.75383663 177.56075954 C-143.85033533 168.05114634 -143.96001773 158.54202778 -144.10083008 149.03295898 C-144.22354005 140.74407943 -144.32141916 132.45534053 -144.38958651 124.16582638 C-144.42654113 119.77708301 -144.47585425 115.3892698 -144.55491447 111.00106621 C-144.62897978 106.86831523 -144.66976712 102.73655423 -144.68535233 98.60318184 C-144.69687238 97.08856088 -144.72041716 95.57397482 -144.75706291 94.05975342 C-145.02310288 82.65170842 -145.02310288 82.65170842 -142.49504662 78.57038689 C-140.75122111 76.78108006 -139.08128036 75.37310673 -137 74 C-136.04963867 73.37125977 -135.09927734 72.74251953 -134.12011719 72.09472656 C-133.18844727 71.61487305 -132.25677734 71.13501953 -131.296875 70.640625 C-130.24435547 70.08834229 -129.19183594 69.53605957 -128.10742188 68.96704102 C-126.99947266 68.40041748 -125.89152344 67.83379395 -124.75 67.25 C-122.39983452 66.01662036 -120.05088187 64.78092706 -117.703125 63.54296875 C-116.55521484 62.9401709 -115.40730469 62.33737305 -114.22460938 61.71630859 C-109.92494193 59.42779692 -105.70229136 57.02426587 -101.5 54.5625 C-100.7579834 54.12881104 -100.0159668 53.69512207 -99.25146484 53.24829102 C-97.68957478 52.3340744 -96.12822993 51.4189258 -94.56738281 50.50292969 C-89.51452557 47.54501896 -84.4448187 44.61621429 -79.375 41.6875 C-78.27430176 41.05150879 -77.17360352 40.41551758 -76.03955078 39.76025391 C-68.51815937 35.42490856 -60.95894086 31.16230301 -53.375 26.9375 C-42.95945032 21.13369176 -32.63464314 15.18472291 -22.34765625 9.15625 C-21.45949219 8.63627441 -20.57132812 8.11629883 -19.65625 7.58056641 C-17.83721539 6.49817394 -16.03033818 5.39515974 -14.234375 4.27490234 C-13.35394531 3.72785645 -12.47351563 3.18081055 -11.56640625 2.6171875 C-10.78595947 2.12331543 -10.0055127 1.62944336 -9.20141602 1.12060547 C-5.92309071 -0.54818827 -3.6023738 -0.46987484 0 0 Z " fill="#1A424E" transform="translate(172,4)"/>
<path d="M0 0 C1.32 0.33 2.64 0.66 4 1 C5.01650239 4.66229229 6.0101504 8.33042242 7 12 C7.28617188 13.02996094 7.57234375 14.05992187 7.8671875 15.12109375 C8.13789063 16.13300781 8.40859375 17.14492187 8.6875 18.1875 C8.93886719 19.10917969 9.19023437 20.03085938 9.44921875 20.98046875 C10 24 10 24 10 32 C4.72 32 -0.56 32 -6 32 C-4.3057261 21.26959864 -2.16962582 10.64285153 0 0 Z " fill="#122F3F" transform="translate(164,147)"/>
<path d="M0 0 C0.33 0 0.66 0 1 0 C1.00423194 0.79937327 1.00846388 1.59874655 1.01282406 2.42234325 C1.11610664 21.86844947 1.22474086 41.31451903 1.33933926 60.76056194 C1.39462885 70.16449942 1.44810385 79.56844069 1.49731445 88.97241211 C1.54020852 97.16843688 1.58649968 105.36443421 1.63687855 113.56041652 C1.6634374 117.90053076 1.6882894 122.2406397 1.70907402 126.58078575 C1.72869066 130.66583554 1.75284938 134.75083328 1.78049088 138.83583641 C1.78983471 140.33501742 1.79751951 141.83420983 1.80341911 143.33340836 C1.81172564 145.38108336 1.82659085 147.42872863 1.84178162 149.47636414 C1.84823417 150.62215281 1.85468672 151.76794149 1.8613348 152.94845104 C1.98842878 155.74535689 2.36263376 158.27909988 3 161 C0.2656634 158.77838255 -0.89775626 157.60433252 -1.49498463 154.07429218 C-1.49259627 152.92888053 -1.49020792 151.78346888 -1.48774719 150.60334778 C-1.49816292 148.62835548 -1.49816292 148.62835548 -1.50878906 146.61346436 C-1.49622789 145.15612462 -1.4832753 143.69878822 -1.4699707 142.24145508 C-1.47047951 140.70555981 -1.4727353 139.16966427 -1.47660828 137.6337738 C-1.4820299 133.46448043 -1.46261203 129.295631 -1.43850732 125.1264174 C-1.41723089 120.76802326 -1.41780701 116.40963106 -1.41581726 112.05119324 C-1.40936906 104.73497867 -1.38811628 97.41893126 -1.35668945 90.1027832 C-1.31635371 80.70001304 -1.298996 71.29735168 -1.28938007 61.8945055 C-1.28109112 53.82211883 -1.26385169 45.74975539 -1.24434257 37.67738891 C-1.2382678 35.07627122 -1.23312918 32.47515266 -1.2279911 29.87403297 C-1.2192317 25.7955124 -1.20494592 21.71704624 -1.1862812 17.63855934 C-1.18014112 16.13769121 -1.17570077 14.63681507 -1.17303848 13.13593674 C-1.16907871 11.09584388 -1.15832931 9.05576748 -1.14717102 7.01570129 C-1.14289754 5.87142072 -1.13862406 4.72714014 -1.13422108 3.54818439 C-1 1 -1 1 0 0 Z " fill="#0B1A30" transform="translate(28,87)"/>
<path d="M0 0 C3.39977502 1.28518473 6.47691789 2.75750891 9.59765625 4.6171875 C10.90645752 5.39376709 10.90645752 5.39376709 12.24169922 6.18603516 C13.17256348 6.74339355 14.10342773 7.30075195 15.0625 7.875 C16.04492676 8.45942871 17.02735352 9.04385742 18.03955078 9.64599609 C24.961319 13.76787287 31.86890028 17.9136288 38.77172852 22.06713867 C43.96486664 25.18902807 49.16951254 28.29085162 54.3828125 31.37890625 C55.03733398 31.76664215 55.69185547 32.15437805 56.36621094 32.55386353 C57.36491211 33.14546768 57.36491211 33.14546768 58.38378906 33.74902344 C71.32735506 41.41645726 84.23325724 49.13923125 97.07250977 56.98022461 C102.50669388 60.29354069 107.95475707 63.57422563 113.45703125 66.7734375 C114.46878418 67.3627002 115.48053711 67.95196289 116.52294922 68.55908203 C118.39945373 69.64776274 120.27972029 70.72999771 122.16455078 71.80419922 C126.75102862 74.4650498 130.47025486 77.02813072 134 81 C129.78911764 80.08635574 126.46858756 78.08040317 122.8125 75.875 C121.70370483 75.21455688 121.70370483 75.21455688 120.57250977 74.54077148 C118.04489244 73.03286632 115.5221996 71.51694816 113 70 C111.14852311 68.88918021 109.29695748 67.77850833 107.4453125 66.66796875 C104.38678081 64.83295107 101.32875271 62.99711408 98.27197266 61.15917969 C90.27419781 56.35315013 82.25345898 51.58710714 74.22531128 46.83206177 C63.2376431 40.32370925 52.28122425 33.76899114 41.375 27.125 C32.85744796 21.93826233 24.32703748 16.77542486 15.75 11.6875 C14.87520996 11.16623535 14.00041992 10.6449707 13.09912109 10.10791016 C8.15645807 7.18728971 3.16594526 4.50560248 -2 2 C-1.34 1.34 -0.68 0.68 0 0 Z " fill="#102639" transform="translate(173,5)"/>
</svg>
